<svg version="1.1" viewBox="0.0 0.0 493.755905511811 459.6036745406824" fill="none" stroke="none" stroke-linecap="square" stroke-miterlimit="10" xmlns:xlink="http://www.w3.org/1999/xlink" xmlns="http://www.w3.org/2000/svg"><clipPath id="p.0"><path d="m0 0l493.75592 0l0 459.60367l-493.75592 0l0 -459.60367z" clip-rule="nonzero"/></clipPath><g clip-path="url(#p.0)"><path fill="#000000" fill-opacity="0.0" d="m0 0l493.75592 0l0 459.60367l-493.75592 0z" fill-rule="evenodd"/><path fill="#9699bc" d="m178.69052 60.738815l246.62909 0c6.4086914E-4 0 0.0012512207 2.5177002E-4 0.0017089844 7.019043E-4c4.272461E-4 4.5013428E-4 7.019043E-4 0.0010604858 7.019043E-4 0.0016975403l-0.0024108887 206.84717c0 22.84851 -18.52237 41.37091 -41.37091 41.37091l-246.62909 0l0 0c-0.0013275146 0 -0.0023956299 -0.0010681152 -0.0023956299 -0.0024108887l0.0023956299 -206.84715l0 0c0 -22.848526 18.522385 -41.37091 41.37091 -41.37091z" fill-rule="evenodd"/><path stroke="#9699bc" stroke-width="2.0" stroke-linejoin="round" stroke-linecap="butt" d="m178.69052 60.738815l246.62909 0c6.4086914E-4 0 0.0012512207 2.5177002E-4 0.0017089844 7.019043E-4c4.272461E-4 4.5013428E-4 7.019043E-4 0.0010604858 7.019043E-4 0.0016975403l-0.0024108887 206.84717c0 22.84851 -18.52237 41.37091 -41.37091 41.37091l-246.62909 0l0 0c-0.0013275146 0 -0.0023956299 -0.0010681152 -0.0023956299 -0.0024108887l0.0023956299 -206.84715l0 0c0 -22.848526 18.522385 -41.37091 41.37091 -41.37091z" fill-rule="evenodd"/><path fill="#444890" d="m100.59156 127.02254l276.83374 0c7.324219E-4 0 0.0014038086 2.822876E-4 0.0019226074 7.8582764E-4c4.8828125E-4 5.0354004E-4 7.6293945E-4 0.0011901855 7.6293945E-4 0.0018997192l-0.0026855469 226.53185c0 25.022919 -20.285065 45.307983 -45.307983 45.307983l-276.83374 0l0 0c-0.0014839172 0 -0.0026855469 -0.0011901855 -0.0026855469 -0.0026855469l0.0026855469 -226.53183l0 0c0 -25.022919 20.28508 -45.308 45.30799 -45.308z" fill-rule="evenodd"/><path stroke="#444890" stroke-width="2.0" stroke-linejoin="round" stroke-linecap="butt" d="m100.59156 127.02254l276.83374 0c7.324219E-4 0 0.0014038086 2.822876E-4 0.0019226074 7.8582764E-4c4.8828125E-4 5.0354004E-4 7.6293945E-4 0.0011901855 7.6293945E-4 0.0018997192l-0.0026855469 226.53185c0 25.022919 -20.285065 45.307983 -45.307983 45.307983l-276.83374 0l0 0c-0.0014839172 0 -0.0026855469 -0.0011901855 -0.0026855469 -0.0026855469l0.0026855469 -226.53183l0 0c0 -25.022919 20.28508 -45.308 45.30799 -45.308z" fill-rule="evenodd"/></g></svg>